<?xml version="1.0" encoding="utf-8"?>
<!-- Generator: Adobe Illustrator 30.1.0, SVG Export Plug-In . SVG Version: 9.03 Build 0)  -->
<svg version="1.1" id="Layer_1" xmlns="http://www.w3.org/2000/svg" xmlns:xlink="http://www.w3.org/1999/xlink" x="0px" y="0px"
	 viewBox="0 0 468.9414368 339.6776428" style="enable-background:new 0 0 468.9414368 339.6776428;" xml:space="preserve">
<path style="fill:#e5a83a;" d="M422.7388306,108.5850067c-15.0895996,2.9081268-30.1609802,5.8873444-45.2214661,8.9094238
	c0.5246582-8.6420212,1.0360718-17.2847214,1.5306396-25.9283066c0.7563477-17.1667328,1.0107117-34.471138-1.2637634-51.5284348
	c-0.0263062-3.9907494-3.2732849-7.242569-6.3684387-9.3531914c-7.1228638-4.7474461-11.0384216-2.3418007-11.439209,5.6730499
	c-2.548584,28.8224907-5.978241,57.5635719-8.4205322,86.3989716c-23.1554565,4.7406769-46.2815857,9.5951767-69.3857117,14.5353165
	c1.6972961-40.1666107,3.9826965-80.3472366,1.8700867-120.4891052c-0.8444824-5.1277103-0.5381775-18.2187996-8.4165039-16.6774445
	c-1.3075256,1.1054497-1.0488586,3.0923471-1.3681641,4.6719813c-0.7643433,6.8937492-5.901001,6.1254988-6.8618164,12.9953222
	c-6.0423584,40.2179489-9.0847473,82.5576553-10.8218079,125.0066605
	c-17.107132,3.7039337-34.2042084,7.4462738-51.2930145,11.2197113
	c1.6377258-33.7221527,3.0779877-67.4522476,4.1571198-101.1927338
	c-0.3153992-12.0023193,0.5841675-24.4760895-2.0306396-36.1981506c-2.3897858-4.0829592-9.3650818-9.5166283-13.7845612-5.6861067
	c-5.3042755,38.9572563-8.6693573,78.5698471-11.7891235,117.8776321
	c-0.7844391,10.2850952-1.4835205,20.5753021-2.1355743,30.8683777
	c-18.8353577,4.1891937-37.6637573,8.4038696-56.4882507,12.6326294
	c4.5196152-49.8737411,10.2096863-99.7686844,9.9692841-149.7669678
	c1.1465912-8.121624-15.7243652-20.3860874-22.2550125-14.0011101
	c-7.5909729,49.6070213-12.1792908,100.0259705-17.5273743,150.0298004
	c-0.6425476,6.9486389-1.2460632,13.9004974-1.830162,20.8539124
	c-27.3153763,6.1488037-54.6282997,12.3030243-81.9508591,18.4146423
	c-18.5664558,2.295929-6.3294039,14.2333832,4.0603333,16.7963104c8.9478416,3.1159973,18.7769909,0.6604614,28.1768017,0.0567322
	c15.8970947-2.3593597,31.7258987-5.0795746,47.5116425-8.0216827c-1.1673126,14.8772888-2.3058472,29.7570496-3.5379562,44.6292114
	c-0.303978,7.6538086-1.9399414,15.368927-1.2800293,23.0094604c2.3986664,10.5589905,10.5213852,21.3092346,21.2930298,24.1216431
	c7.0196609,1.3851624,7.7697296-5.930603,7.8192139-11.0622864c1.983139-24.7536621,4.0709305-49.5023651,6.2533264-74.2391663
	c0.2820358-4.1996307,0.5886154-8.3992767,0.9105682-12.5989227c19.0953217-3.8903351,38.1432037-8.0171814,57.1798096-12.1803131
	c-1.3935699,25.0597076-2.6081085,50.1302185-3.980423,75.1909485c-0.335144,7.4920044-0.9651184,14.9862671-1.1934814,22.474762
	c0.7429504,9.5364685,7.0537567,19.883667,16.435318,22.9121094c9.1723175,1.8753967,7.9974976-9.538147,8.4206848-15.5033569
	c2.1398773-36.9004517,4.2468719-73.8091431,6.1584473-110.726944c16.282074-3.5542297,32.5675659-7.0703735,48.8795166-10.4192657
	c0.9502106-0.2015839,1.9021912-0.3955688,2.8525543-0.5965424c-0.9607544,33.0766144-1.3629456,65.9429016-2.0052948,97.641037
	c-0.294342,11.475647-0.6332397,22.9484863-0.9441223,34.4228821c-0.0861969,3.6289978-0.2245483,7.2580872-0.30159,10.8869629
	c0.1956329,9.9519958,5.9936523,21.091095,15.5924377,24.801178c12.5045166,2.4631348,8.1157532-15.3332825,9.2693176-22.8087463
	c1.3910217-45.061554,2.7346497-90.1226501,3.6014404-135.1982422c0.0743713-5.0236664,0.1964111-10.0479584,0.336731-15.0725098
	c22.6799622-4.6660309,45.3941345-9.191391,68.1181946-13.6761475
	c-3.1403503,41.5574493-6.4138489,83.1037445-9.5827332,124.6600342
	c-0.1061096,10.1464539-3.3392639,20.6985474-0.4423523,30.6216736c2.5620422,7.7850342,7.3727417,15.9348145,15.2789001,19.1333923
	c12.5467834,3.3672791,8.5775452-16.2733154,10.2537842-23.6564331
	c3.7868347-51.9734192,7.5533142-103.9545135,10.8920898-155.9602051
	c26.7770081-5.2680359,53.5528564-10.540802,80.2856445-15.9908142
	C489.8113098,125.1698227,449.9152527,99.6462555,422.7388306,108.5850067z"/>
</svg>
