<?xml version="1.0" encoding="utf-8"?>
<!-- Generator: Adobe Illustrator 30.1.0, SVG Export Plug-In . SVG Version: 9.03 Build 0)  -->
<svg version="1.1" id="Layer_1" xmlns="http://www.w3.org/2000/svg" xmlns:xlink="http://www.w3.org/1999/xlink" x="0px" y="0px"
	 viewBox="0 0 871.3439941 577.0539551" style="enable-background:new 0 0 871.3439941 577.0539551;" xml:space="preserve">
<g>
	<path style="fill:#FF8000;" d="M603.5026855,96.9559937c-13.4735718,2.5966797-26.9308472,5.2568359-40.378418,7.9552612
		c0.4684448-7.7164917,0.9251099-15.4335938,1.3666992-23.1514893c0.675354-15.3282471,0.9024658-30.7794228-1.128418-46.0099525
		c-0.0234985-3.5633545-2.9227295-6.466917-5.6864014-8.3514996c-6.3600464-4.2390137-9.8562622-2.0910034-10.2141113,5.0654888
		c-2.2756348,25.7357178-5.3380127,51.3987465-7.5187378,77.1459961
		c-20.6755981,4.2329712-41.3250427,8.5675659-61.9548035,12.9786377
		c1.5155029-35.8649292,3.5561523-71.7423706,1.6697998-107.5852051
		c-0.7540283-4.5785522-0.4805298-16.2676392-7.5151367-14.8913574c-1.1674805,0.9870605-0.9365234,2.7611694-1.2216187,4.1716309
		c-0.6824951,6.1554565-5.269043,5.4694824-6.1269531,11.6035767c-5.3952637,35.9107666-8.1118164,73.7160645-9.6628418,111.6189575
		c-15.2750244,3.307251-30.5410767,6.6488037-45.7997437,10.0181274
		c1.4623413-30.1106567,2.7483521-60.2283936,3.7119141-90.3554077
		c-0.2816162-10.7169189,0.5216064-21.8547955-1.8131714-32.3214722c-2.1338501-3.6456909-8.3621216-8.4974365-12.3082886-5.0771484
		c-4.7362061,34.7850952-7.7409058,70.1553345-10.5265503,105.253418c-0.7004395,9.1835938-1.324646,18.3717651-1.9068604,27.5625
		c-16.8181763,3.7405396-33.630127,7.5038452-50.4385986,11.2797241
		c4.0355835-44.5324707,9.116272-89.0838623,8.9016113-133.7275391c1.0238037-7.251832-14.0403442-18.2028198-19.871582-12.5016479
		c-6.7780151,44.2943115-10.874939,89.3135986-15.6502686,133.9622192
		c-0.5737305,6.2044678-1.1126099,12.4118042-1.6341553,18.6205444
		c-24.3900146,5.4902954-48.777832,10.9854126-73.1742554,16.4425049
		c-16.578064,2.0500488-5.6515503,12.7090454,3.6254883,14.9974976c7.989563,2.7822876,16.7660522,0.5897217,25.1591797,0.0506592
		c14.1945801-2.1066895,28.328186-4.5355835,42.4233398-7.1625977c-1.0422974,13.2839966-2.0588989,26.5701904-3.1590576,39.8496094
		c-0.2714233,6.8341064-1.7321777,13.7229614-1.1429443,20.5452271c2.1417847,9.4281616,9.3945923,19.0270996,19.0126343,21.5383301
		c6.2678833,1.2368164,6.9376221-5.2954712,6.9818115-9.8775635c1.770752-22.1026611,3.6349487-44.2008667,5.5836182-66.2884521
		c0.2518311-3.7498779,0.5255737-7.4997559,0.8130493-11.2496338c17.050293-3.4736938,34.0582275-7.1585693,51.0560913-10.8758545
		c-1.2443237,22.3759155-2.3287964,44.7614746-3.5541382,67.1383057
		c-0.2992554,6.6896362-0.8617554,13.3812866-1.0656738,20.0678101c0.6633911,8.5151367,6.2983398,17.7542114,14.6751709,20.458313
		c8.1900024,1.6745605,7.1409912-8.5166626,7.5188599-13.8430176c1.9107056-32.9485474,3.7920532-65.90448,5.4989014-98.8685303
		c14.5383301-3.173584,29.0797119-6.3131714,43.6447144-9.3034058c0.8484497-0.1799927,1.6984863-0.3532104,2.5470581-0.5326538
		c-0.8578491,29.5342407-1.21698,58.8806763-1.7905273,87.184082c-0.2628174,10.2466431-0.5654297,20.4907837-0.8430176,30.7363281
		c-0.0769653,3.2403564-0.2005005,6.4807739-0.2692871,9.7210083c0.1746826,8.8861694,5.3517456,18.8323364,13.9225464,22.1450806
		c11.1653442,2.1993408,7.246582-13.6911621,8.2766113-20.3660278c1.2420654-40.2356567,2.4417725-80.4708862,3.2157593-120.7190552
		c0.0664062-4.4856567,0.175354-8.9718628,0.3006592-13.458313c20.2510376-4.1663208,40.5326233-8.2070312,60.8230286-12.2114868
		c-2.8040161,37.1068115-5.7269287,74.2036743-8.5564575,111.3094482
		c-0.0947266,9.0598145-2.9816284,18.4818115-0.3949585,27.3422241c2.2876587,6.9512939,6.5831299,14.2282715,13.6425781,17.0842896
		c11.203064,3.0066528,7.6589355-14.5305176,9.1556396-21.1229248c3.3812866-46.4072876,6.7443848-92.8214111,9.7255859-139.2575073
		c23.9093018-4.7038574,47.8175659-9.4119263,71.6873779-14.2782593
		C663.3919678,111.7646484,627.7686157,88.9745483,603.5026855,96.9559937z"/>
	<g>
		<path style="fill:#201B18;" d="M352.2499695,529.4859009c2.3892212-0.5795288,3.4759521-1.5928345,3.4759521-2.8964233
			c0-2.02771-3.6205444-3.4747925-9.4855957-3.4747925c-7.0952759,0-10.9326782,1.2302246-10.9326782,3.4747925
			c0,1.5928345,1.3759155,2.5338135,4.7060547,2.7518311c1.4482422,0.0722656,1.8831177,1.5205078,0.5795288,6.3711548
			c-1.6651001,6.2988892-5.2855835,17.303833-8.543457,26.1376343c-3.1856079-7.5301514-6.661499-16.7977295-8.2543335-23.2412109
			c-1.4481812-5.5025024-1.5204468-8.9061279-0.2168579-9.0507202c3.3301392-0.4348755,4.7060547-1.1589966,4.7060547-2.8963623
			c0-2.1723022-3.692749-3.5471191-12.2362671-3.5471191c-8.0362549,0-12.0182495,1.3748169-12.0182495,3.8374023
			c0,1.4470825,1.2301636,2.2434692,2.822998,2.6060791c1.086731,0.2169189,1.810791,1.0133057,3.7650757,6.5158081
			l1.2313232,3.5481567c-2.1000366,6.4434814-5.4301758,15.5664673-8.1820068,22.6617432
			c-3.3302002-7.5290527-6.8060913-16.8700562-8.9783936-23.7473145c-1.7373657-5.5036011-1.8096924-8.689209-0.7229614-8.9060669
			c2.4614868-0.5072021,3.909668-1.1578979,3.909668-2.968689c0-2.1723022-3.4035645-3.5471191-11.6567383-3.5471191
			c-8.2542725,0-12.1640015,1.3748169-12.1640015,3.8374023c0,1.4470825,1.0856323,2.4614868,3.1133423,2.6784058
			c1.2301636,0.1445923,2.2445679,1.0855713,4.2711182,6.4434814c3.8374023,10.1362305,11.0784302,28.744812,13.9736938,34.9714355
			c1.5205078,3.1855469,2.8963623,4.850647,5.6481934,4.850647c2.7506714,0,3.6928101-1.8831177,5.1398926-5.0687256
			c1.5204468-3.4024658,5.3578491-13.3218384,8.8338013-22.5170898c3.1132812,8.3988647,6.8783569,17.9556274,8.8326416,22.5170898
			c1.5205078,3.4036255,2.8963623,5.0687256,5.5759277,5.0687256c3.1132812,0,4.0542603-1.8831177,5.2844238-5.0687256
			c2.02771-5.1398315,7.8928223-21.4304199,12.0916748-33.3051758
			C348.6294861,532.3822632,350.1499939,529.993103,352.2499695,529.4859009z"/>
		<path style="fill:#201B18;" d="M401.4074402,569.4525757c-1.3024902-0.2180176-2.3168945-1.3035889-4.5614624-6.7337646
			c-3.6193848-8.760376-12.0182495-27.3689575-15.7110596-34.753418c-1.7374268-3.5482178-3.7650757-5.0687256-6.661499-5.0687256
			c-3.2578735,0-5.6470947,2.3168945-5.9362793,5.3579102c-0.1456909,1.4481812-0.4348755,3.1856079-1.086731,5.0687256
			c-1.3758545,4.0542603-7.7470703,19.4038086-11.512146,27.9472656c-2.2445679,5.1410522-3.8374023,7.6748047-5.7193604,8.0363159
			c-2.6795044,0.5072021-4.0542603,1.3758545-4.0542603,2.8240967c0,2.0999756,4.0542603,3.5481567,10.1362305,3.5481567
			c6.2988892,0,11.1495361-1.3758545,11.1495361-3.692749c0-1.4482422-1.5204468-2.3892212-4.4891357-2.6072388
			c-1.8096924-0.1445923-2.1712036-1.7373657-0.5784302-6.3711548l1.2302246-3.4747925
			c3.3312988-0.3626099,6.1542358-0.4348755,9.630188-0.4348755c3.2578735,0,6.5157471,0.0722656,9.9193726,0.3626099
			l0.2891846,0.8686523c1.8096924,5.3579102,2.1723022,8.8327026,1.0133057,8.9772949
			c-3.4747925,0.3626099-5.2856445,1.0866699-5.2856445,2.8963623c0,2.1723022,3.7651367,3.4758911,13.0327148,3.4758911
			c8.543457,0,12.9603271-1.1589966,12.9603271-3.4758911C405.1725159,570.7550659,403.7243347,569.8140869,401.4074402,569.4525757
			z M373.2432556,553.1620483c-2.5349121,0-4.7783813,0-7.2410278,0.1445923
			c2.1723022-5.5025024,4.7061157-11.8024902,6.9506836-17.0146484c2.6795044,5.2844238,5.5036011,11.4387207,7.819397,17.0146484
			C378.0939026,553.1620483,375.4878235,553.1620483,373.2432556,553.1620483z"/>
		<path style="fill:#201B18;" d="M446.7286682,556.2019043c-1.882019,0-2.8964233,2.02771-3.9819946,5.7927856
			c-0.5795288,1.9542847-1.3035889,4.1988525-2.1723022,5.2855835c-1.0855713,1.3024902-5.5025024,1.8096924-10.571167,1.8096924
			h-3.4747925c-2.3168945,0-2.7518311-2.3891602-2.7518311-7.8916626v-25.1243286
			c0-3.5471191,0.2903442-6.5880737,1.4482422-6.732666c2.6071777-0.2903442,4.1999512-1.0144043,4.1999512-2.8240967
			c0-2.5338135-4.3445435-3.4025269-11.512146-3.4025269c-7.1687012,0-11.512146,0.8687134-11.512146,3.4025269
			c0,1.8096924,1.5927734,2.5337524,4.1988525,2.8240967c1.1589966,0.1445923,1.4481812,3.1855469,1.4481812,6.732666v26.5725098
			c0,3.4024658-0.2891846,6.3712158-1.4481812,6.5158081c-2.8964233,0.3626099-4.5614624,1.0866699-4.5614624,2.968689
			c0,2.5337524,3.6204834,3.1132812,10.6434326,3.1132812c2.1723022,0,5.5747681-0.0723267,9.4121704-0.0723267h14.1193848
			c0.4337769,1.0856323,1.3748169,1.8096924,2.6784058,1.8096924c3.8374023,0,7.0952759-8.4711914,7.0952759-14.8423462
			C449.9865417,558.3018799,448.5382996,556.2019043,446.7286682,556.2019043z"/>
		<path style="fill:#201B18;" d="M492.9919739,556.2019043c-1.882019,0-2.8964233,2.02771-3.9819946,5.7927856
			c-0.5795288,1.9542847-1.3035889,4.1988525-2.1723022,5.2855835c-1.0855713,1.3024902-5.5025024,1.8096924-10.571167,1.8096924
			h-3.4747925c-2.3168945,0-2.7518311-2.3891602-2.7518311-7.8916626v-25.1243286
			c0-3.5471191,0.2903442-6.5880737,1.4482422-6.732666c2.6071777-0.2903442,4.2000122-1.0144043,4.2000122-2.8240967
			c0-2.5338135-4.3446045-3.4025269-11.512207-3.4025269c-7.1687012,0-11.512146,0.8687134-11.512146,3.4025269
			c0,1.8096924,1.5927734,2.5337524,4.1988525,2.8240967c1.1589966,0.1445923,1.4482422,3.1855469,1.4482422,6.732666v26.5725098
			c0,3.4024658-0.2892456,6.3712158-1.4482422,6.5158081c-2.8963623,0.3626099-4.5614624,1.0866699-4.5614624,2.968689
			c0,2.5337524,3.6204834,3.1132812,10.6434937,3.1132812c2.1722412,0,5.5747681-0.0723267,9.4121094-0.0723267h14.1193848
			c0.4338379,1.0856323,1.3748169,1.8096924,2.6784058,1.8096924c3.8374023,0,7.0952759-8.4711914,7.0952759-14.8423462
			C496.2498474,558.3018799,494.8016663,556.2019043,492.9919739,556.2019043z"/>
		<path style="fill:#201B18;" d="M541.5722046,557.5778198c-1.8096924,0-2.968689,1.8831177-3.7650757,4.4891968
			c-0.7963867,2.6783447-1.3036499,4.1988525-2.2446289,5.1409912c-1.1578369,1.1578369-4.7783813,1.9542847-11.2218628,1.9542847
			h-5.6481934c-2.0265503,0-2.3168945-2.4614868-2.3168945-7.8917236v-9.2675171
			c6.3000488,0,11.7302246,0.1445923,11.8024902,1.6650391c0.2169189,3.1856079,0.5783691,4.7061157,2.5338135,4.7061157
			c2.4614868,0,3.6204834-4.4891968,3.5481567-9.4121704c0-4.9953003-1.0866699-9.4844971-3.5481567-9.4844971
			c-1.9554443,0-2.3168945,1.6651001-2.5338135,4.9229736c-0.0722656,1.6651001-5.5024414,1.7374268-11.8024902,1.7374268
			v-8.9049683c0-5.2133179,0.4349365-7.602478,2.4626465-7.602478h5.5024414c5.5748291,0,9.1953125,0.5072021,10.2808838,1.5927734
			c0.7241211,0.7241211,1.3035889,2.1000366,1.9553833,4.4169312c0.7230225,2.4614868,1.7374268,3.909668,3.4025269,3.909668
			s2.968689-1.7373657,2.968689-5.1409912c0-5.5025024-2.7518311-12.6700439-5.8651123-12.6700439
			c-1.2301636,0-2.098877,0.7240601-2.5337524,1.881958h-17.449585c-2.822998,0-5.5747986-0.0722656-7.8194275-0.0722656
			c-7.0229492,0-10.6434937,0.6517944-10.6434937,3.1855469c0,1.8108521,1.6662598,2.5349121,4.5615234,2.8964233
			c1.1589966,0.1445923,1.4481812,3.1132812,1.4481812,6.5891724v26.4268188c0,3.4024658-0.2891846,6.3712158-1.4481812,6.5158081
			c-2.8952637,0.3626099-4.5615234,1.0866699-4.5615234,2.968689c0,2.5337524,3.6205444,3.1132812,10.6434937,3.1132812
			c1.9554443,0,5.3579407-0.0723267,7.8194275-0.0723267h18.173645c0.4337769,1.1590576,1.3035889,1.882019,2.6784058,1.882019
			c3.4758911,0,6.661499-8.3254395,6.661499-14.335144C544.6132202,559.3151855,543.381897,557.5778198,541.5722046,557.5778198z"/>
		<path style="fill:#201B18;" d="M590.1524048,521.7388306c-1.3759155,0-2.1723022,0.7240601-2.5337524,1.881958h-31.5678101
			c-0.3626709-1.1578979-1.1590576-1.881958-2.5338135-1.881958c-3.4036255,0-6.5891724,7.5301514-6.5891724,14.1182251
			c0,3.4758911,1.2312622,5.4301758,3.0409546,5.4301758s2.8240967-1.6651001,3.9819946-5.4301758
			c0.5795288-1.881958,1.1589966-3.4024658,2.02771-4.6337891c0.7963867-1.3035889,3.5470581-1.7373657,7.0229492-1.7373657
			h1.3036499c1.3747559,0,1.6651001,3.0409546,1.6651001,8.543457v24.7617188c0,3.4747925-0.3626099,6.4434814-1.8108521,6.5880737
			c-3.3301392,0.2903442-4.9229736,1.086731-4.9229736,2.8964233c0,2.5349121,4.3446045,3.4035645,12.5977783,3.4035645
			c8.2542725,0,12.598877-0.8686523,12.598877-3.4035645c0-1.8096924-1.5927734-2.6060791-4.9241333-2.968689
			c-1.3758545-0.1445923-1.8096313-3.0410156-1.8096313-6.5158081v-24.7617188c0-5.5025024,0.2168579-8.543457,1.5927734-8.543457
			h1.3759155c3.4747314,0,6.2265625,0.4337769,7.0229492,1.7373657s1.4481812,2.7518311,2.0266113,4.6337891
			c1.1589966,3.7650757,2.1723022,5.4301758,3.9830933,5.4301758c1.8096924,0,3.0410156-1.9542847,3.0410156-5.4301758
			C596.7416382,529.2689819,593.5548706,521.7388306,590.1524048,521.7388306z"/>
		<path style="fill:#201B18;" d="M40.6534729,459.9953003c-13.0456543,1.2843628-20.8695679,1.2392578-23.130249-6.0770874
			c-2.0522451-6.6419067,3.4327393-13.5319214,12.9671631-16.3526001
			c10.5133057-3.1102295,18.2984619,0.4641113,24.7360229,7.1074829c2.0325317,2.1228027,4.7874146,4.5349121,7.8145752,3.7047729
			c2.664856-0.7307129,4.2590332-4.4561157,3.0299683-9.0057983c-2.3049927-8.5299072-10.7897339-18.8123169-17.0863647-17.0540771
			c-2.5925293,0.723877-3.6524048,3.1071167-3.5673828,5.286499c-4.9269409-0.9742432-11.5686646-0.8219604-18.5267334,0.8058472
			l-1.1691284-2.8890381c-1.1051025-2.6513672-4.1782837-3.916687-6.8295288-2.8118286l-1.1816406,0.4923096
			c-2.6512442,1.1048584-3.9164419,4.1781616-2.8116446,6.8295898l1.1567373,2.7219849
			C5.2389836,439.272644-2.8086236,451.3924561,0.928498,463.4905396
			c4.9105835,15.8978882,24.6030273,17.6046143,39.2042236,15.8233032
			c13.187439-1.6087646,21.0819092-0.8355713,23.1271362,6.4219971c1.9813843,7.0302734-3.2392578,13.9918213-12.6705933,16.7755737
			c-10.24646,3.024292-20.9797363-0.0637207-27.4130249-6.175415c-4.3931885-4.1735229-6.8605957-6.9771729-9.8035879-6.0333252
			c-2.7080078,0.8684082-4.1505737,4.4343262-2.3301392,10.0369873
			c3.2767944,10.0847168,12.4641714,19.9801636,18.4529419,18.0927124c2.4185791-0.7622681,3.5064087-2.9517822,3.163269-5.6832275
			c5.0650635,0.9536133,11.6878662,1.2162476,18.2872314-0.171875v0.000061l1.3069458,3.2022095
			c1.1047974,2.6513062,4.1782837,3.916687,6.8295288,2.8118286l1.1813354-0.4923096
			c2.6515503-1.1048584,3.916748-4.1782227,2.8119507-6.8296509l-1.1821289-2.7814941
			c11.3762817-6.2943726,21.0770874-18.4456177,17.7025757-31.760437
			C75.5049133,460.5841675,54.1504211,458.6665649,40.6534729,459.9953003z"/>
		<path style="fill:#201B18;" d="M142.273468,398.1555786c-2.3765259,0.494812-3.5095215,1.9390869-3.7439575,3.9157715
			c-18.1595459,3.8154297-36.2329102,8.050415-54.229248,12.5698853c-1.081604-1.6715088-2.7373657-2.4694824-5.0963745-1.8664551
			c-5.8345947,1.4914551-8.1568604,14.7805176-5.4174805,25.145752c1.4448242,5.4671631,4.3175049,7.9962158,7.3502808,7.2067261
			c3.0319824-0.7891235,4.0491943-3.8468628,4.4900513-10.2813721c0.2200317-3.2177124,0.7012329-5.9124756,1.5758667-8.1789551
			c0.8831177-2.2887573,5.3417969-4.2637939,11.2608032-5.7036133c0.8881836-0.2160645,1.3324585-0.3237305,2.2208862-0.5383301
			c2.3428955-0.565979,3.9884644,4.1295776,6.0732422,12.8380127c3.1265869,13.0617065,6.253418,26.1234131,9.3799438,39.1851196
			c1.3166504,5.4995117,1.8427734,10.3560791-0.4475708,11.1347046c-5.2615967,1.7889404-7.5756836,3.6757812-6.8665161,6.5339966
			c0.9932251,4.0028076,8.3285522,3.5869141,21.6710205,0.4943848c13.3438721-3.0928955,20.0960083-5.9423828,19.2272949-9.9741211
			c-0.6204224-2.8787842-3.5021362-3.6026611-9.0548706-2.9639893c-2.2932129,0.2637329-4.0362549-4.1702881-5.2731934-9.6881714
			c-2.9381714-13.1054077-5.8766479-26.2108154-8.8148804-39.3161621
			c-1.9588013-8.7374878-2.6704712-13.6505737-0.3185425-14.1729736c0.9407349-0.2089844,1.4111938-0.3131104,2.3519287-0.5205078
			c5.9415894-1.3093262,10.8004761-1.6140137,12.5997314,0.1727905c1.7989502,1.7865601,3.3948364,3.8599854,5.0065308,6.6530762
			c3.2206421,5.5855713,5.4762573,7.8846436,8.5367432,7.2613525c3.0601807-0.623291,4.5210571-4.1571045,3.413208-9.7023926
			C156.0680847,407.8468018,148.1540833,396.9312134,142.273468,398.1555786z"/>
		<path style="fill:#201B18;" d="M205.8592224,387.5947266c-24.6563721,4.0288086-44.7348633,25.8262939-39.5834351,51.7382812
			c4.822998,24.2599487,28.6629639,38.850647,52.5257568,34.9627075
			c24.1505737-3.9348145,43.1870117-25.0387573,39.9923706-50.206604
			C255.506134,398.1881104,230.5207214,383.5650635,205.8592224,387.5947266z M221.8436584,462.9474487
			c-18.7427368,2.7697754-33.0476685-18.6737061-36.0897827-34.7311401
			c-2.366272-12.4906616,3.284729-26.7531128,16.9502563-29.2416382
			c19.4182739-3.5360718,33.5941162,19.2767334,36.2236328,35.2972412
			C240.9552307,446.6230469,235.38974,460.9455566,221.8436584,462.9474487z"/>
		<path style="fill:#201B18;" d="M313.4171448,462.3189087c8.9024658-0.7906494,15.9705811-3.8485107,21.3361206-7.6750488
			c0.7385254,1.8354492,2.486084,2.7681274,4.5145874,2.6233521c5.8475952-0.4171753,11.5875854-14.1151733,11.0323486-23.0524292
			c-0.24823-3.9979248-1.8579712-6.2606812-4.5388794-6.0860596c-3.0477905,0.1985474-4.2098999,4.7658081-6.2649536,8.453064
			c-4.0130615,7.0134277-11.3549194,10.6190186-19.2655029,11.4187012
			c-18.4775391,1.868042-32.0699463-17.9154663-33.9259033-33.5491333
			c-1.6724854-14.0863037,6.0774536-28.0299072,21.2301636-29.4401245
			c9.9094849-0.9223022,21.2844238,4.397644,25.8953247,13.2620239c3.0661011,5.8948975,4.7727051,9.2227173,8.6084595,8.9664307
			c2.8461304-0.1901245,5.8808594-3.3311768,5.3666382-11.562439c-0.5730591-9.1715088-5.2556763-21.0457153-11.3328857-20.6235352
			c-2.4044189,0.1671143-3.9237671,2.050354-4.3671875,4.6808472c-6.3299561-3.3189087-15.3396606-5.6795654-25.4592896-4.7798462
			c-24.7103271,2.1970825-43.3106689,23.6185913-40.1793213,48.5803833
			C268.9544983,446.5526733,290.1793518,464.3828125,313.4171448,462.3189087z"/>
		<path style="fill:#201B18;" d="M361.9821472,382.21875c2.0147095,0.1176758,2.7766113,5.0495605,3.0643921,10.8157959
			c0.7218628,14.4731445,1.4439697,28.946167,2.1658325,43.4192505c0.2818604,5.6477661,0.0366821,10.62854-1.8633423,10.9483643
			c-4.2663574,0.7181396-6.875,2.024353-6.7078247,4.9645386c0.2338257,4.1176147,7.4677734,5.0894775,19.2787476,4.585144
			c11.8120728-0.5043945,18.9328003-2.0892944,18.8147583-6.211792c-0.0841675-2.9437256-2.7924805-4.0227661-7.1051636-4.3746948
			c-1.9198608-0.1566772-2.5888672-5.0983887-2.7896729-10.7496948c-0.1722412-4.850647-0.258667-7.276001-0.4309692-12.1266479
			c1.413208-1.5829468,3.0667114-3.4083862,4.9707031-5.354126c8.2681274,9.4801636,15.9155273,19.7120972,23.1799927,29.9727783
			c4.2946167,5.9439087,10.0280762,7.6348267,18.0273438,7.6171875c10.8643188-0.0239868,16.4956055-1.9386597,16.5320435-5.5905762
			c0.0256958-2.5923462-2.3279419-4.0891724-8.7355347-4.7719116c-2.0220337-0.2154541-5.038208-2.6068115-9.0458984-7.5421143
			c-8.838562-10.9984131-17.6574097-22.0127563-26.4954224-33.0115967c1.3103638-1.3013916,1.9666748-1.951355,3.28302-3.2496948
			c7.6160278-7.6333618,15.7822266-17.6859131,25.557251-20.1772461c6.4471436-1.6431274,9.2122192-3.2821655,9.2229614-5.4024658
			c0.0175171-3.4169922-6.9534912-5.8364868-18.3775635-5.7486572c-12.5683594,0.0966187-20.7734985,2.3132324-20.6899414,6.0818481
			c0.0522461,2.3557739,1.9910278,3.7440186,4.8811646,4.0238647c2.1342163,0.206543,2.0627441,2.5467529-4.3140869,10.2227783
			c-5.6171265,6.7617798-12.2583008,13.5093994-18.4730225,19.5073242
			c-0.2544556-7.1585693-0.3815308-10.737915-0.6359863-17.8964844c-0.2050171-5.7697754,0.1338501-10.7485962,2.1307983-11.0376587
			c4.4863892-0.649292,7.2607422-1.8765869,7.1763306-4.8202515c-0.118042-4.1225586-7.7730713-5.3519897-20.3329468-4.8156738
			c-12.5585327,0.5363159-20.085022,2.4140015-19.8511963,6.5316162
			C354.5857849,380.9680786,357.4565125,381.9544067,361.9821472,382.21875z"/>
		<path style="fill:#201B18;" d="M557.8444214,455.7044678c0.2654419-2.9329224-2.2982788-4.3257446-6.5420532-5.1868896
			c-1.8893433-0.3834229-1.9675293-5.3695068-1.4967651-11.0047607c1.2064209-14.4407959,2.413208-28.8815308,3.6196289-43.3223267
			c0.4806519-5.753479,1.4080811-10.6570435,3.4265137-10.7070312c4.5355225-0.1123047,7.6903076-0.9789429,7.9560547-3.9118652
			c0.3724976-4.1073608-6.838562-6.2027588-17.7314453-7.0506592c-9.3726196-0.7294922-14.2176514,1.0870361-17.2600708,6.9074097
			c-7.4988403,14.3622437-15.2546387,28.5913696-23.3050842,42.6520996
			c-6.3988037-15.354248-12.8764648-30.666687-20.0443115-45.6820068
			c-3.0604858-6.3575439-6.2107544-7.5598145-17.5074463-7.8223877c-9.0111694-0.2094116-16.8974609,1.1199341-16.9449463,5.2438965
			c-0.0338745,2.9447021,2.7391357,3.9229736,7.6358032,4.7029419c2.5098267,0.3997192,3.0514526,5.239502,2.9413452,11.0119629
			c-0.2767944,14.4884033-0.5535278,28.9768066-0.8300171,43.465271
			c-0.1081543,5.6537476-0.6772461,10.2374268-2.8461304,10.4364014c-5.4245605,0.4956055-7.9619751,1.7710571-7.9953003,4.7169189
			c-0.0466309,4.1228638,7.0994873,5.7249146,16.0516357,5.9329834c10.0266724,0.2330322,17.241394-1.0219727,17.3896484-5.1424561
			c0.105957-2.9440918-2.5168457-4.3220215-7.8842773-5.0930786c-2.9842529-0.4287109-3.4759521-4.9332275-3.321167-10.5859375
			c0.2671509-9.7512817,0.401001-14.6268921,0.6681519-24.3781738c0.1582031-5.7712402,0.2900391-10.5996704,0.5213623-14.4829102
			c6.2830811,14.3929443,12.5717773,28.7872314,19.2677002,42.9943237c2.3330078,4.9336548,4.2579346,7.4940186,7.9834595,7.6748657
			c3.605835,0.1750488,5.5405884-2.4359741,8.4621582-7.1142578c8.172699-13.2509766,15.5292053-26.9849854,22.8309021-40.7282715
			c-0.0383911,2.359375-0.2258911,5.0628052-0.4699097,8.5889282c-0.8364868,12.0823975-1.2547607,18.1235352-2.0912476,30.2059937
			c-0.390564,5.6412964-1.3411865,10.5447998-3.510376,10.6256104c-4.6933594,0.1747437-7.4273682,1.1738281-7.6089478,4.1131592
			c-0.2542114,4.116394,6.81427,5.930603,19.2033081,6.8761597
			C550.2057495,460.5404663,557.4727783,459.8118896,557.8444214,455.7044678z"/>
		<path style="fill:#201B18;" d="M651.3989868,462.8063965c-2.0807495-0.6793213-3.4572144-2.7034912-5.8300781-12.012146
			c-5.2107544-20.1679688-11.3260498-40.2775879-18.5269165-59.8277588
			c-2.2355957-6.1271973-5.4528198-9.0523071-10.5014648-9.6931763c-5.6789551-0.7208252-10.2879028,2.5426636-11.3873291,7.3809204
			c-0.5235596,2.3048096-1.3685303,5.0568237-2.8517456,7.965271
			c-7.7668457,14.5620728-16.2290039,28.7836304-24.5620728,43.0272827
			c-4.6148682,7.9301147-7.6516724,11.7770996-10.821167,12.0564575c-4.5075073,0.3972778-6.9187622,1.5956421-7.1342163,3.9421997
			c-0.3126221,3.4016113,6.137085,6.3398438,16.1247559,7.3827515c10.3444214,1.0801392,18.5631104-0.1863403,19.0056763-3.9298096
			c0.2767334-2.3400879-2.0720825-4.1521606-6.9224243-5.0689697c-2.9596558-0.5594482-3.2974243-3.2145386,0.1948242-10.4109497
			c1.0720215-2.1560669,1.6097412-3.2336426,2.6882935-5.3876953c5.6386108,0.0463257,10.3791504,0.4926758,16.1894531,1.2213135
			c5.4470825,0.6831055,10.8787231,1.5147095,16.4944458,2.7649536c0.1160278,0.5865479,0.1742554,0.8798828,0.2900391,1.4664917
			c1.824646,9.0531616,1.5964355,14.7557983-0.3270264,14.7039795c-5.7561035-0.1551514-8.9541016,0.5645142-9.3418579,3.4849243
			c-0.4654541,3.5038452,5.4315796,6.3525391,20.5865479,8.6113892c13.9711304,2.0822754,21.4810181,1.4675903,22.0958252-2.2514648
			C657.2468872,465.9075317,655.0935059,464.0124512,651.3989868,462.8063965z M608.2667847,429.8667603
			c-4.2672119-0.5352173-8.0484009-0.9917603-12.2230225-1.2412109
			c4.6953735-8.4672241,10.2348633-18.1238403,15.1420288-26.0585938c3.5326538,9.1085205,7.036499,19.6651611,9.7219238,29.1810303
			C616.4335327,430.907959,612.0454102,430.3405151,608.2667847,429.8667603z"/>
		<path style="fill:#201B18;" d="M752.6131592,405.6040649c-10.4641724-2.3675537-18.2764893-2.4453125-19.1350098,1.588562
			c-0.612793,2.8803711,1.8780518,4.7056885,7.2935181,6.5166626c3.012207,1.0073242,2.6673584,5.5343018,1.4425659,11.0549316
			c-2.1434937,9.6618042-3.21521,14.4927979-5.3590088,24.1546631c-0.8930054,4.0252075-1.727478,7.2188721-2.3826904,9.6087036
			c-9.9501953-18.2520752-19.4719238-36.7199097-30.1260986-54.5813599
			c-4.508728-7.4611206-8.3424072-9.9835815-16.6226807-11.4597168c-8.9069214-1.5878906-17.1804199-1.5229492-17.8556519,2.5457153
			c-0.4821167,2.9052124,2.480957,4.5615845,7.6880493,6.1983643c2.4250488,0.7623291,2.2662964,5.4141846,1.274231,11.1018066
			c-2.4902954,14.2755737-4.9805908,28.5511475-7.4706421,42.8267212
			c-0.9717407,5.5707397-2.2383423,10.0128174-4.4199829,9.8762817c-5.4539185-0.3432007-8.4031372,0.4882202-8.8860474,3.3944092
			c-0.6760864,4.0673218,6.3997192,6.7866211,15.2476196,8.367981c9.9100952,1.7712402,17.2626343,1.6414795,18.0397949-2.4077148
			c0.5552368-2.8933105-1.8359375-4.6585693-7.0444336-6.2461548c-2.895813-0.8826904-2.694458-5.409729-1.6763916-10.972229
			c1.7565918-9.59552,2.6346436-14.3932495,4.3912354-23.9887695c1.0604248-5.7946777,2.0144043-11.0095215,3.0256958-15.1365356
			c12.7053833,19.1549683,23.1816406,39.9995728,33.2967529,60.593811c2.9150391,5.9356689,5.4327393,9.5090942,9.5324707,10.43396
			c3.9828491,0.8985596,7.1672974-1.1438599,8.2537231-5.8504028c1.4575195-6.3145142,3.2858276-15.3236084,4.6894531-21.4083862
			c2.6478271-11.4801025,5.2957153-22.9602051,7.9436035-34.4404297c1.270874-5.5101318,2.7973022-9.8746948,5.0748901-9.5869751
			c5.6922607,0.7192383,8.8338013,0.1468506,9.5186768-2.7173462
			C769.3058472,411.0594482,761.9555664,407.7179565,752.6131592,405.6040649z"/>
		<path style="fill:#201B18;" d="M787.3546753,413.6765747c-6.4502563-1.6287842-12.3842163,1.6607666-13.6960449,7.0393677
			c-1.0609741,4.3502808,0.9850464,8.2383423,5.5394897,10.8340454c1.5710449,0.9991455,3.0740356,1.7433472,2.5261841,3.9141846
			c-0.7783203,3.0842896-3.6896973,4.8566895-5.7687988,5.9621582c-1.7145386,0.9115601-3.118103,1.6537476-3.401062,2.7974243
			c-0.4241943,1.7150879,0.5317383,3.0430298,2.588562,3.5568848c5.0805664,1.2694702,17.703186-5.5648804,20.7467041-17.1899414
			C798.0679321,422.2702637,794.5485229,415.493042,787.3546753,413.6765747z"/>
		<path style="fill:#201B18;" d="M864.9799805,434.9945679c-2.5747681-0.8058472-4.7639771,0.6155396-5.8795166,2.4898682
			c-3.1793823-3.0835571-7.9563599-6.1553955-13.6378784-8.5025024l0.6323242,0.1725464l0.8288574-3.0162964
			c0.7322998-2.7774048-0.940979-5.6491699-3.7182007-6.3816528l-1.2375488-0.326355
			c-2.7774658-0.7324829-5.649292,0.9407349-6.381897,3.7181396l-0.7453003,2.909668
			c-13.4613647-1.5903931-28.8049927,4.1165161-32.5460815,17.3247681
			c-4.5332031,16.0048218,10.9939575,28.1451416,24.2107544,34.5975952
			c11.9343872,5.826416,18.156189,10.7802124,15.9212036,17.9816284c-2.164978,6.9758911-10.348938,9.9691162-19.7772217,7.1698608
			c-10.2427368-3.0410156-17.5469971-11.468811-19.6057739-20.0949097
			c-1.4058228-5.8901978-1.9458008-9.5842896-4.918457-10.3920288c-2.7354126-0.7432861-5.8771973,1.4651489-7.4002686,7.1558228
			c-2.7410889,10.2432861-0.4425049,23.539917,5.5928345,25.2123413c2.4375,0.6754761,4.5386353-0.5700684,5.7366333-3.0484009
			c3.0463257,2.9104614,7.2322388,5.9924316,12.0961914,8.352478l-0.8952637,3.2969971
			c-0.7325439,2.7774658,0.9407349,5.649231,3.7182007,6.3817139l1.2375488,0.3262329
			c2.7775269,0.732605,5.6490479-0.9406128,6.3816528-3.7180786l0.6950073-2.7133179
			c13.7109985,2.1779175,30.9592285-2.3345947,35.7966309-16.576355
			c5.3615112-15.78479-11.5822144-29.0254517-23.6256104-35.2559814
			c-11.6474609-6.0258789-18.1680298-10.3171387-16.081604-17.6851196
			c1.8938599-6.6886597,10.230896-9.4869385,19.7647705-6.6628418
			c10.5124512,3.1140137,15.1115112,10.3545532,16.9050903,19.4346924c0.5526733,2.8883057,1.5549316,6.4125977,4.5549927,7.3670044
			c2.6411133,0.8401489,6.0147705-1.4141846,7.4604492-5.8997803
			C872.772522,450.2023315,871.2330933,436.9519043,864.9799805,434.9945679z"/>
	</g>
</g>
</svg>
