<?xml version="1.0" encoding="utf-8"?>
<!-- Generator: Adobe Illustrator 30.1.0, SVG Export Plug-In . SVG Version: 9.03 Build 0)  -->
<svg version="1.1" id="Capa_1" xmlns="http://www.w3.org/2000/svg" xmlns:xlink="http://www.w3.org/1999/xlink" x="0px" y="0px"
	 viewBox="0 0 512 512" style="enable-background:new 0 0 512 512;" xml:space="preserve">
<g>
	<path d="M377.0237732,229.7238159l-5.3650513-0.1340179c-0.2443237-4.8391418-0.0600281-9.2632446-1.0018005-13.8554382
		c-2.0968323-10.2247162-10.8659058-18.2445679-21.241394-18.4769745l-12.7015686-0.2845154l-2.4872437-21.1764832
		c-0.7223511-6.1494293-5.7636108-11.3392029-12.1940308-11.344986l-33.4125061-0.0299683
		c-6.762085-0.0060577-11.572876,5.0760803-12.2488098,11.5358582l-2.2045288,21.0687561l-118.3064575,0.212326
		c-11.6264648,0.0208588-22.5489655,10.4260254-22.5599213,22.3825836l-0.0971222,105.4438324
		c-0.0088654,9.6561584,5.1105194,17.432251,12.6385803,22.4995728l1.0127411,64.5404358l0.8635712,68.146637
		c-1.1242676,16.4156799,11.0918579,29.2532654,27.5853424,29.2485657l157.6674347-0.0451355
		c16.07547-0.0045471,28.0135193-11.7359924,28.1341858-27.8650513l0.8847351-118.2984924
		c5.4506226-3.5999146,9.3588562-9.062561,9.3833618-16.0850525l0.1483765-42.3806152l4.7955017-0.1779175
		c4.2684021-0.1583252,9.4000244-3.1856079,9.3996582-8.3074341l-0.0048828-58.411972
		C385.7115784,233.1912537,381.0955811,229.8255157,377.0237732,229.7238159z M318.2472839,173.4423981l0.0847473,17.2559967
		l-5.9707336,0.4754944l-0.0150452-17.8688507L318.2472839,173.4423981z M298.6747437,173.47435l-0.0525818,17.4483032
		l-5.7651672,0.1923523l-0.0134888-17.5044098L298.6747437,173.47435z M183.7061462,338.041687l139.5535583,0.0026855
		c2.0191345,0.0000305,3.7585754,2.0667419,3.8437805,3.3451843c0.1187439,1.7834167-1.1836548,4.2840576-3.694519,4.2840271
		l-139.3725128-0.0012817c-2.2736053-0.0000305-3.7094421-2.081604-3.7889099-3.6265564
		C180.180191,340.739563,181.6346741,338.0416565,183.7061462,338.041687z M180.3204041,321.3048401
		c0.2913818-1.2758789,1.9008484-3.3736572,3.9709625-3.3737183l138.3212128-0.0027466
		c1.7044983,0,3.6470642,1.3181458,4.0851746,2.3601074c0.7164001,1.7033081,0.5230408,3.6729126-1.5957031,5.3301697
		l-142.3231964-0.0274353C180.9257202,325.5909119,180.0614319,322.4389343,180.3204041,321.3048401z M220.3791199,408.4985046
		c-0.0074158,1.9245911-2.151123,5.0033875-4.819046,5.0068359l-30.0031433,0.0387878
		c-2.6782379,0.003479-5.09758-2.646637-5.1040955-5.0631104l-0.0398254-14.9596558
		c-0.0070648-2.6541138,2.3505402-4.3780212,4.8062744-4.8685608l29.9813385,0.1734314
		c3.0052795,0.0174255,5.2436829,2.714447,5.2335358,5.363678L220.3791199,408.4985046z M270.8109741,474.5038147
		c-0.0100403,1.8988037-1.8990479,3.6775513-4.0137024,4.341095l-25.734726-0.0014038
		c-2.4227905-0.0000916-4.7587585-2.1650696-4.7854614-4.6859131l-0.1386871-13.123291
		c-0.0301361-2.8466797,2.3180542-4.9461365,4.9990997-4.9443665l24.9822235,0.0166626
		c2.5747986,0.3330383,4.7769775,2.1721802,4.763031,4.8244629L270.8109741,474.5038147z M241.140213,423.393158
		l25.743515-0.0575256c2.0134583,0.5460205,3.9733276,2.1877441,3.9658813,4.2104492l-0.0499573,13.5773621
		c-0.0074158,2.0273438-2.2105103,4.5132751-4.705719,4.5122681l-25.0357361-0.0099182
		c-2.3687439-0.000946-4.8178711-2.5614014-4.8166046-4.7761841l0.0068817-12.8178406
		C236.2498322,425.4943237,238.6613007,423.3987427,241.140213,423.393158z M236.4099579,394.9879456
		c-0.0031586-2.7880554,2.0135498-4.8329468,4.7505341-5.1424255l24.5003052,0.0157776
		c3.0004883,0.0019531,5.1974182,2.1968079,5.1941528,5.1227417l-0.0141907,12.6984253
		c-0.0027161,2.4213257-2.0104675,5.0296021-4.8629456,5.0359192l-24.7831116,0.054718
		c-2.9479828,0.0065308-4.7666321-2.1911011-4.7698975-5.0676575L236.4099579,394.9879456z M315.7886658,478.8211975
		l-25.7158203-0.0084534c-2.5177307-0.000824-4.5978088-2.7728882-4.5710144-5.0278931l0.1614075-13.6033325
		c0.0238037-2.0090637,2.4778137-4.0796814,4.5247498-4.0771484l24.8818665,0.0311584
		c2.565155,0.0032043,4.6892395,2.3755188,4.6898499,4.772522l0.0036316,13.6271362
		C319.7637024,476.0058899,317.7640076,478.8218689,315.7886658,478.8211975z M314.9797668,445.5894165l-24.1124268,0.0914612
		c-3.1667786,0.0120544-5.2604065-2.3760376-5.257782-5.3355408l0.0108643-12.0478821
		c0.0023499-2.4637451,1.8497009-4.8656311,4.6227722-4.8740845l25.6111145-0.078186
		c1.8363647,0.5022583,3.8881226,2.307251,3.8936462,4.1974182l0.0376587,12.8443298
		C319.7926636,442.7564392,318.1026611,445.5775452,314.9797668,445.5894165z M319.7858887,408.5382385
		c-0.0015564,2.013855-1.8031006,3.766571-4.0804138,4.2803955l-25.6312561-0.0997314
		c-2.2428284-0.0086975-4.4239502-2.0904541-4.4237671-4.2255554l0.0016479-13.572113
		c0.0003662-2.2479858,1.8674316-5.0048828,4.4539795-5.0131836l25.2396851-0.0806885
		c2.313324-0.0073853,4.4528809,2.0904846,4.4512329,4.353363L319.7858887,408.5382385z M323.4868164,366.1309509
		l-139.1689301-0.0114441c-2.4512939-0.0001831-4.0854645-2.3286438-4.0366821-4.04422
		c0.0467072-1.6429138,1.438736-4.0984802,3.9050598-4.0987244l138.4512787-0.0153198
		c2.5823669-0.0002747,4.3458862,1.3749695,4.5152588,3.3487244
		C327.3358459,363.441925,326.3228149,365.0168762,323.4868164,366.1309509z M335.7590637,304.5239868l-164.103653-0.0582886
		c-7.6299896-0.0027161-13.0435638-6.9324951-13.0473633-13.9580688l-0.0348511-62.9835052
		c-0.0044403-8.1235046,5.627121-13.63974,13.74646-13.6360779l162.9228973,0.0731964
		c7.2024536,0.0032043,13.3374634,5.7035217,13.3491516,12.7897491l0.1072693,64.7926178
		C347.7901611,299.0481262,343.0112,303.5317383,335.7590637,304.5239868z"/>
	<path d="M154.1665497,185.8854065l37.5068665,0.046402l-1.3577271-16.7322388l-8.028183-125.6255951
		c2.4657898-2.4376297,4.1628723-4.8756676,4.1212311-8.1041298l-0.2863159-22.1785469
		c-0.0496979-3.8497057-2.9101562-7.6466379-6.2147827-9.1405907c-5.2571716-2.3766642-11.1014557-2.1805964-16.1506042,0.5473328
		c-3.3928986,1.8330426-5.5081787,5.9588361-5.5467377,9.887928l-0.1974335,20.1377144
		c-0.035202,3.5876503,1.8694305,6.5561829,4.0862885,8.8769951l-1.0190887,23.7981834L154.1665497,185.8854065z"/>
	<path d="M442.7313232,172.0852203c-4.343811-44.5719376-38.2414246-81.1728592-82.0450745-88.5186996
		c-4.2193298-0.7076035-7.8910217,1.105072-8.3856506,4.773468c-0.4507751,3.3433762,1.0267029,6.7934341,4.9033203,7.4023209
		c39.6873169,6.2332535,69.6295471,38.215271,73.1407471,78.3323364c0.3602905,4.1165619,3.1768188,6.3324127,6.9678345,6.0143738
		C441.133728,179.7684326,443.1987915,176.8819122,442.7313232,172.0852203z"/>
	<path d="M251.7112122,159.151825c-0.2976379-6.6754456-5.3293152-11.5789948-12.0301971-11.7788696l-15.4904327,0.0541382
		c-6.4851685,0.6733398-11.0065765,5.3037872-11.3308258,11.7988586l-3.0179596,28.9553375l45.1667175-0.0392914
		L251.7112122,159.151825z M229.3330688,182.7891083l-0.0506897-24.9737396l6.0476685-0.0074615l0.0744171,24.5632629
		C233.8822632,182.7183685,231.5578766,182.8271332,229.3330688,182.7891083z"/>
	<path d="M359.2903442,114.545166c-4.2109375-0.896019-7.7068481,0.7887039-8.653595,3.9405899
		c-0.9958191,3.3154526,0.2937317,7.4027252,4.0302429,8.0658798c25.8170166,4.5821075,41.7348938,23.8013611,44.9650269,49.72229
		c0.4332275,3.4767609,4.7216492,4.0176239,7.2064514,3.7104492c2.0538025-0.253952,4.9280396-2.3028107,4.7026367-5.4488068
		C409.4586792,145.4804077,387.6854858,120.5871429,359.2903442,114.545166z"/>
	<path d="M353.1895142,155.6233215c9.0374146,1.5922241,15.6274719,9.4839935,16.8825684,18.4956818
		c0.6043091,4.338913,3.5501099,6.5729218,7.8493042,5.8483429c10.8171082-1.8230286,1.6394958-32.3310547-23.1671143-37.1067505
		c-4.4711914-0.8607635-7.6421204,1.6269379-7.9817505,5.6729736
		C346.4455566,152.4274139,349.0046692,154.8860779,353.1895142,155.6233215z"/>
</g>
</svg>
