<?xml version="1.0" encoding="UTF-8"?>
<svg id="Layer_1" data-name="Layer 1" xmlns="http://www.w3.org/2000/svg" viewBox="0 0 47.65 47.65">
  <defs>
    <style>
      .cls-1 {
        fill: #e78822;
      }

      .cls-2 {
        fill: #4b3729;
      }
    </style>
  </defs>
  <circle class="cls-2" cx="23.82" cy="23.82" r="23.82"/>
  <path class="cls-1" d="M38.72,19.72c-1.19.23-2.39.47-3.58.71.04-.68.08-1.37.12-2.05.06-1.36.08-2.73-.1-4.08,0-.32-.26-.57-.5-.74-.56-.38-.87-.19-.91.45-.2,2.28-.47,4.56-.67,6.84-1.83.38-3.66.76-5.49,1.15.13-3.18.32-6.36.15-9.53-.07-.41-.04-1.44-.67-1.32-.1.09-.08.24-.11.37-.06.55-.47.48-.54,1.03-.48,3.18-.72,6.53-.86,9.89-1.35.29-2.71.59-4.06.89.13-2.67.24-5.34.33-8.01-.02-.95.05-1.94-.16-2.86-.19-.32-.74-.75-1.09-.45-.42,3.08-.69,6.22-.93,9.33-.06.81-.12,1.63-.17,2.44-1.49.33-2.98.67-4.47,1,.36-3.95.81-7.9.79-11.85.09-.64-1.24-1.61-1.76-1.11-.6,3.93-.96,7.92-1.39,11.87-.05.55-.1,1.1-.14,1.65-2.16.49-4.32.97-6.49,1.46-1.47.18-.5,1.13.32,1.33.71.25,1.49.05,2.23,0,1.26-.19,2.51-.4,3.76-.63-.09,1.18-.18,2.35-.28,3.53-.02.61-.15,1.22-.1,1.82.19.84.83,1.69,1.69,1.91.56.11.61-.47.62-.88.16-1.96.32-3.92.49-5.87.02-.33.05-.66.07-1,1.51-.31,3.02-.63,4.52-.96-.11,1.98-.21,3.97-.31,5.95-.03.59-.08,1.19-.09,1.78.06.75.56,1.57,1.3,1.81.73.15.63-.75.67-1.23.17-2.92.34-5.84.49-8.76,1.29-.28,2.58-.56,3.87-.82.08-.02.15-.03.23-.05-.08,2.62-.11,5.22-.16,7.73-.02.91-.05,1.82-.07,2.72,0,.29-.02.57-.02.86.02.79.47,1.67,1.23,1.96.99.19.64-1.21.73-1.8.11-3.57.22-7.13.28-10.7,0-.4.02-.8.03-1.19,1.79-.37,3.59-.73,5.39-1.08-.25,3.29-.51,6.58-.76,9.86,0,.8-.26,1.64-.04,2.42.2.62.58,1.26,1.21,1.51.99.27.68-1.29.81-1.87.3-4.11.6-8.23.86-12.34,2.12-.42,4.24-.83,6.35-1.27,2.68-.5-.48-2.52-2.63-1.81Z"/>
</svg>
